<?xml version="1.0" encoding="utf-8"?>
<!-- Generator: Adobe Illustrator 19.0.0, SVG Export Plug-In . SVG Version: 6.00 Build 0)  -->
<svg version="1.1" id="Layer_1" xmlns="http://www.w3.org/2000/svg" xmlns:xlink="http://www.w3.org/1999/xlink" x="0px" y="0px"
	 viewBox="0 0 500 550" style="enable-background:new 0 0 500 550;" xml:space="preserve">
<style type="text/css">
	.st0{fill:#FFFBF7;}
	.st1{fill:#40C4DC;}
	.st2{fill:#0399B5;}
	.st3{fill:#1E2150;}
	.st4{fill:#028EC2;}
	.st5{fill:#FCFDFC;stroke:#43C4DC;stroke-width:4;stroke-miterlimit:10;}
	.st6{opacity:0.35;fill:#1899AA;}
	.st7{fill:#FCFDFC;stroke:#1E214F;stroke-width:4;stroke-miterlimit:10;}
	.st8{opacity:0.35;fill:#12173C;}
	.st9{fill:#FCFDFC;stroke:#008EC2;stroke-width:4;stroke-miterlimit:10;}
	.st10{opacity:0.35;fill:#077799;}
	.st11{fill:#FFFFFF;}
	.st12{fill:#077FA5;}
	.st13{fill:#19B4C8;}
	.st14{fill:#1BADDA;}
	g#XMLID_48_{transform: translate(-26.5rem);}
</style>
<rect id="XMLID_137_" class="st0" width="500" height="550"/>
<g id="XMLID_48_">
	<path id="XMLID_23_" class="st3" d="M679.3,187.8H555.7c0.6,90,40.2,265.3,40.2,265.3c4.1,9.9,83.4,12.2,83.4,12.2
		s79.3-2.3,83.4-12.2c0,0,39.6-175.2,40.2-265.3H679.3z"/>
	<path id="XMLID_30_" class="st1" d="M679.3,67.2C534,68.1,555.7,187.8,555.7,187.8h123.6H803C803,187.8,824.7,68.1,679.3,67.2z"/>
	<path id="XMLID_21_" class="st4" d="M762.8,114.3C749.5,101.5,747.7,80,747.7,80c-28.8-13.5-68.4-12.8-68.4-12.8S639.8,66.4,611,80
		c0,0-1.8,21.5-15.1,34.3s-19,22.9-16.4,29.5c2.6,6.6,10.6,17.2,99.8,17.2s97.2-10.6,99.8-17.2C781.7,137.2,776.1,127.1,762.8,114.3
		z"/>
	<path id="XMLID_19_" class="st4" d="M803.8,179.6H679.3H554.8c-2.3,0-4.1,1.8-4.1,4.1s1.8,4.1,4.1,4.1h124.5h124.5
		c2.3,0,4.1-1.8,4.1-4.1S806.1,179.6,803.8,179.6z"/>
	<g id="XMLID_12_">
		<g id="XMLID_44_">
			<g id="XMLID_45_">
				<path id="XMLID_46_" class="st7" d="M672.8,321.9v19.4h-13.5c-4.3,0-8.4-2.3-10.5-6.1l-9.5-16.8c0,0,4.4,3.5,11.6,3.5
					C657.2,321.9,672.8,321.9,672.8,321.9z"/>
			</g>
		</g>
		<g id="XMLID_41_">
			<g id="XMLID_42_">
				<path id="XMLID_43_" class="st7" d="M651.1,321.9l7.9-13.5l6.3,3.5l-10.1-17.2H634l8.3,4.6l-3.7,5.5c0,0-4.8,6.4,0.5,13.5
					C639.2,318.4,643.5,321.9,651.1,321.9z"/>
			</g>
		</g>
		<g id="XMLID_38_">
			<g id="XMLID_39_">
				<path id="XMLID_40_" class="st7" d="M697.2,303.3l16.8-9.7l6.8,11.8c2.2,3.8,2.2,8.4,0,12.1l-9.8,16.6c0,0,0.8-5.6-2.8-11.8
					C705,316.7,697.2,303.3,697.2,303.3z"/>
			</g>
		</g>
		<g id="XMLID_33_">
			<g id="XMLID_35_">
				<path id="XMLID_36_" class="st7" d="M708.1,322l-15.5-0.1l-0.1-7.2l-9.9,17.3l10.5,18.2l-0.2-9.5l6.6,0.4c0,0,7.9,1.1,11.4-7.2
					C711,334,711.8,328.5,708.1,322z"/>
			</g>
		</g>
		<g id="XMLID_27_">
			<g id="XMLID_29_">
				<path id="XMLID_32_" class="st7" d="M669.7,291.7l-17-9.5l6.7-11.9c2.2-3.8,6.1-6.1,10.4-6.1l19.3-0.1c0,0-5.3,2.2-8.8,8.4
					C677.3,278.1,669.7,291.7,669.7,291.7z"/>
			</g>
		</g>
		<g id="XMLID_13_">
			<g id="XMLID_24_">
				<path id="XMLID_26_" class="st7" d="M680.3,272.8l7.9,13.5l-6.1,3.8l20-0.3l10.4-18.3l-8.1,4.9l-3-5.9c0,0-3.1-7.4-12-6.2
					C689.2,264.2,684,266.2,680.3,272.8z"/>
			</g>
		</g>
	</g>
	<path id="XMLID_52_" class="st8" d="M679.3,187.8v277.4c0,0,79.3-2.3,83.4-12.2c0,0,39.6-175.2,40.2-265.3H679.3z"/>
</g>
</svg>