<?xml version="1.0" encoding="utf-8"?>
<!-- Generator: Adobe Illustrator 19.0.0, SVG Export Plug-In . SVG Version: 6.00 Build 0)  -->
<svg version="1.1" id="Layer_1" xmlns="http://www.w3.org/2000/svg" xmlns:xlink="http://www.w3.org/1999/xlink" x="0px" y="0px"
	 viewBox="0 0 500 550" style="enable-background:new 0 0 500 550;" xml:space="preserve">
<style type="text/css">
	.st0{fill:#FFFBF7;}
	.st1{fill:#78909C;}
	.st2{fill:#0399B5;}
	.st3{fill:#263238;}
	.st4{fill:#455A64;}
	.st5{fill:#FCFDFC;stroke:#B0BEC5;stroke-width:4;stroke-miterlimit:10;}
	.st6{opacity:0.35;fill:#073940;}
	.st7{fill:#FCFDFC;stroke:#1E214F;stroke-width:4;stroke-miterlimit:10;}
	.st8{opacity:0.35;fill:#12173C;}
	.st9{fill:#FCFDFC;stroke:#008EC2;stroke-width:4;stroke-miterlimit:10;}
	.st10{opacity:0.35;fill:#077799;}
	.st11{fill:#FFFFFF;}
	.st12{fill:#077FA5;}
	.st13{fill:#19B4C8;}
	.st14{fill:#1BADDA;}
	g#XMLID_53_{transform: translate(-26.5rem, -27.5rem);}
</style>
<rect id="XMLID_137_" class="st0" width="500" height="550"/>
<g id="XMLID_53_">
	<path id="XMLID_55_" class="st1" d="M669.8,599.6H545.4L568,878.8c1.1,13.9,12.7,24.6,26.7,24.6h75.2H745
		c13.9,0,25.5-10.7,26.7-24.6l22.6-279.2H669.8z"/>
	<path id="XMLID_56_" class="st4" d="M669.8,571.5H542.7c-7.7,0-14,6.3-14,14l0,0c0,7.7,6.3,14,14,14h127.2H797c7.7,0,14-6.3,14-14
		l0,0c0-7.7-6.3-14-14-14H669.8z"/>
	<path id="XMLID_59_" class="st3" d="M763.8,541.2h-94h-94c-16.8,0-30.4,13.6-30.4,30.4v0h124.4h124.4v0
		C794.2,554.8,780.6,541.2,763.8,541.2z"/>
	<path id="XMLID_60_" class="st4" d="M669.8,527.7h-21.1c-7.2,0-13.1,5.9-13.1,13.1v0.3h34.1h34.1v-0.3c0-7.2-5.9-13.1-13.1-13.1
		H669.8z"/>
	<path id="XMLID_73_" class="st4" d="M775.5,831.3h-34.9c0,0-41,4.4-45.8,46.6v25.4h50.7c13.6,0,25-10.5,26.1-24.1L775.5,831.3z"/>
	<circle id="XMLID_78_" class="st3" cx="607.6" cy="903.9" r="18.8"/>
	<g id="XMLID_98_">
		<g id="XMLID_134_">
			<g id="XMLID_135_">
				<path id="XMLID_136_" class="st5" d="M664.3,746.2v19.9h-13.9c-4.5,0-8.6-2.4-10.8-6.3l-9.8-17.2c0,0,4.5,3.6,11.9,3.6
					C648.2,746.2,664.3,746.2,664.3,746.2z"/>
			</g>
		</g>
		<g id="XMLID_131_">
			<g id="XMLID_132_">
				<path id="XMLID_133_" class="st5" d="M642,746.2l8.1-13.8l6.4,3.6l-10.4-17.7h-21.6l8.5,4.7l-3.8,5.7c0,0-5,6.5,0.5,13.8
					C629.8,742.6,634.3,746.2,642,746.2z"/>
			</g>
		</g>
		<g id="XMLID_128_">
			<g id="XMLID_129_">
				<path id="XMLID_130_" class="st5" d="M689.3,727.1l17.2-9.9l6.9,12.1c2.2,3.9,2.2,8.6,0,12.4l-10,17.1c0,0,0.9-5.7-2.8-12.1
					C697.3,740.9,689.3,727.1,689.3,727.1z"/>
			</g>
		</g>
		<g id="XMLID_124_">
			<g id="XMLID_126_">
				<path id="XMLID_127_" class="st5" d="M700.4,746.3l-15.9-0.1l-0.1-7.4l-10.1,17.7l10.8,18.7l-0.2-9.8l6.8,0.4
					c0,0,8.1,1.1,11.7-7.4C703.4,758.6,704.3,753,700.4,746.3z"/>
			</g>
		</g>
		<g id="XMLID_121_">
			<g id="XMLID_122_">
				<path id="XMLID_123_" class="st5" d="M661.1,715.3l-17.4-9.8l6.9-12.2c2.2-3.9,6.3-6.3,10.7-6.3l19.8-0.1c0,0-5.4,2.2-9,8.6
					C668.9,701.3,661.1,715.3,661.1,715.3z"/>
			</g>
		</g>
		<g id="XMLID_118_">
			<g id="XMLID_119_">
				<path id="XMLID_120_" class="st5" d="M672,695.9l8.1,13.8l-6.3,3.9l20.5-0.3l10.6-18.8l-8.3,5.1l-3.1-6.1c0,0-3.2-7.5-12.3-6.3
					C681.1,687.1,675.7,689.1,672,695.9z"/>
			</g>
		</g>
	</g>
	<path id="XMLID_142_" class="st6" d="M669.8,599.6v303.8H745c13.9,0,25.5-10.7,26.7-24.6l22.6-279.2H669.8z"/>
	<circle id="XMLID_80_" class="st3" cx="749.3" cy="884.3" r="40.4"/>
	<circle id="XMLID_81_" class="st11" cx="749.3" cy="884.3" r="10.6"/>
</g>
</svg>