<?xml version="1.0" encoding="utf-8"?>
<!-- Generator: Adobe Illustrator 19.0.0, SVG Export Plug-In . SVG Version: 6.00 Build 0)  -->
<svg version="1.1" id="Layer_1" xmlns="http://www.w3.org/2000/svg" xmlns:xlink="http://www.w3.org/1999/xlink" x="0px" y="0px"
	 viewBox="0 0 500 550" style="enable-background:new 0 0 500 550;" xml:space="preserve">
<style type="text/css">
	.st0{fill:#FFFBF7;}
	.st1{fill:#40C4DC;}
	.st2{fill:#0399B5;}
	.st3{fill:#1E2150;}
	.st4{fill:#028EC2;}
	.st5{fill:#FCFDFC;stroke:#43C4DC;stroke-width:4;stroke-miterlimit:10;}
	.st6{opacity:0.35;fill:#1899AA;}
	.st7{fill:#FCFDFC;stroke:#1E214F;stroke-width:4;stroke-miterlimit:10;}
	.st8{opacity:0.35;fill:#12173C;}
	.st9{fill:#FCFDFC;stroke:#008EC2;stroke-width:4;stroke-miterlimit:10;}
	.st10{opacity:0.35;fill:#077799;}
	.st11{fill:#FFFFFF;}
	.st12{fill:#077FA5;}
	.st13{fill:#19B4C8;}
	.st14{fill:#1BADDA;}
	g#XMLID_50_{transform: translate(0,-27.5rem);}
</style>
<rect id="XMLID_137_" class="st0" width="500" height="550"/>
<g id="XMLID_50_">
	<path id="XMLID_86_" class="st4" d="M256.4,683.4c-90.5-0.5-110.7-22.2-110.7-22.2l12.7,222.2c2.1,15.3,22.9,24.8,44.8,30.7
		c34.8,9.4,71.6,9.4,106.5,0c21.9-5.9,42.6-15.5,44.8-30.7l12.7-222.2C367.1,661.2,346.9,682.9,256.4,683.4z"/>
	<path id="XMLID_62_" class="st3" d="M365.3,637.3c0,0,1.8-106.9-108.9-109.5c-110.7,2.7-108.9,109.5-108.9,109.5
		c-1.9,19.4,1.9,18.6,28.6,30.4s80.2,7,80.2,7s53.5,4.8,80.3-7S367.1,656.7,365.3,637.3z"/>
	<path id="XMLID_57_" class="st1" d="M319.9,593.4c0-28.5,0-47.5,0-47.5c-26.7-18.8-63.5-18.1-63.5-18.1s-36.8-0.7-63.5,18.1
		c0,0,0,19,0,47.5c-0.1,31.8,0.7,53.3,63.5,53.5C319.2,646.7,320,625.2,319.9,593.4z"/>
	<path id="XMLID_58_" class="st1" d="M365.3,637.3l-0.9,13.4c-22,26-108,24-108,24s-86,2-108-24l-0.9-13.4c0,0-12.9,9.5-1.8,23.9
		c11.1,14.4,65.2,22,110.7,22.2c45.5-0.3,99.6-7.9,110.7-22.2C378.2,646.8,365.3,637.3,365.3,637.3z"/>
	<g id="XMLID_70_">
		<g id="XMLID_95_">
			<g id="XMLID_96_">
				<path id="XMLID_97_" class="st9" d="M250.3,802.5v20.2h-14.1c-4.5,0-8.7-2.4-11-6.4l-9.9-17.5c0,0,4.6,3.7,12.1,3.7
					C234,802.5,250.3,802.5,250.3,802.5z"/>
			</g>
		</g>
		<g id="XMLID_92_">
			<g id="XMLID_93_">
				<path id="XMLID_94_" class="st9" d="M227.7,802.5l8.2-14l6.5,3.7l-10.5-18h-22l8.6,4.8l-3.8,5.8c0,0-5.1,6.6,0.5,14
					C215.3,798.9,219.8,802.5,227.7,802.5z"/>
			</g>
		</g>
		<g id="XMLID_89_">
			<g id="XMLID_90_">
				<path id="XMLID_91_" class="st9" d="M275.8,783.1l17.5-10.1l7.1,12.3c2.3,3.9,2.3,8.7,0,12.6l-10.2,17.3c0,0,0.9-5.8-2.9-12.3
					C283.9,797.1,275.8,783.1,275.8,783.1z"/>
			</g>
		</g>
		<g id="XMLID_83_">
			<g id="XMLID_85_">
				<path id="XMLID_87_" class="st9" d="M287.1,802.6l-16.2-0.1l-0.1-7.5l-10.3,18l11,19l-0.2-9.9l6.9,0.4c0,0,8.3,1.1,11.9-7.5
					C290.1,815.2,291,809.4,287.1,802.6z"/>
			</g>
		</g>
		<g id="XMLID_75_">
			<g id="XMLID_76_">
				<path id="XMLID_77_" class="st9" d="M247.1,771.1l-17.7-9.9l7-12.4c2.3-3.9,6.4-6.4,10.9-6.4l20.1-0.1c0,0-5.5,2.3-9.1,8.7
					C255,756.9,247.1,771.1,247.1,771.1z"/>
			</g>
		</g>
		<g id="XMLID_71_">
			<g id="XMLID_72_">
				<path id="XMLID_74_" class="st9" d="M258.2,751.4l8.2,14l-6.4,3.9l20.8-0.3l10.8-19.1l-8.5,5.1l-3.1-6.2c0,0-3.2-7.7-12.5-6.4
					C267.4,742.4,262,744.5,258.2,751.4z"/>
			</g>
		</g>
	</g>
	<path id="XMLID_141_" class="st10" d="M256.3,683.5v237.8c17.9,0,35.8-2.3,53.2-7c21.9-5.9,42.6-15.5,44.8-30.7L367,661.2
		C367,661.2,346.8,683,256.3,683.5z"/>
</g>
</svg>