<?xml version="1.0" encoding="utf-8"?>
<!-- Generator: Adobe Illustrator 19.0.0, SVG Export Plug-In . SVG Version: 6.00 Build 0)  -->
<svg version="1.1" id="Layer_1" xmlns="http://www.w3.org/2000/svg" xmlns:xlink="http://www.w3.org/1999/xlink" x="0px" y="0px"
	 viewBox="0 0 500 550" style="enable-background:new 0 0 500 550;" xml:space="preserve">
<style type="text/css">
	.st0{fill:#FFFBF7;}
	.st1{fill:#40C4DC;}
	.st2{fill:#0399B5;}
	.st3{fill:#1E2150;}
	.st4{fill:#028EC2;}
	.st5{fill:#FCFDFC;stroke:#43C4DC;stroke-width:4;stroke-miterlimit:10;}
	.st6{opacity:0.35;fill:#1899AA;}
	.st7{fill:#FCFDFC;stroke:#1E214F;stroke-width:4;stroke-miterlimit:10;}
	.st8{opacity:0.35;fill:#12173C;}
	.st9{fill:#FCFDFC;stroke:#008EC2;stroke-width:4;stroke-miterlimit:10;}
	.st10{opacity:0.35;fill:#077799;}
	.st11{fill:#FFFFFF;}
	.st12{fill:#077FA5;}
	.st13{fill:#19B4C8;}
	.st14{fill:#1BADDA;}
</style>
<rect id="XMLID_137_" class="st0" width="500" height="550"/>
<g id="XMLID_125_">
	<path id="XMLID_1_" class="st1" d="M148.2,185.4l18.5,249.6c1.6,17,15.9,30.1,33,30.1h113.2c17.1,0,31.4-13.1,33-30.1l18.4-249.6
		H148.2z"/>
	<path id="XMLID_9_" class="st2" d="M363.6,168.5H149c-2.9,0-5.3,2.4-5.3,5.3v6.4c0,2.9,2.4,5.3,5.3,5.3h214.6
		c2.9,0,5.3-2.4,5.3-5.3v-6.4C368.9,170.9,366.5,168.5,363.6,168.5z"/>
	<path id="XMLID_10_" class="st3" d="M149,168.5l17.4-90.8c1.2-6.4,6.8-11,13.3-11h153.8c6.5,0,12.1,4.6,13.3,11l16.9,90.8H149z"/>
	<path id="XMLID_20_" class="st4" d="M256.3,67.2h-78.1V133c0,6.4,4.8,11.9,11.1,12.8c15,2,42.4,5.1,67,5.5c24.5-0.3,52-3.4,67-5.5
		c6.3-0.9,11.1-6.3,11.1-12.8V67.2H256.3z"/>
	<g id="XMLID_2_">
		<g id="XMLID_3_">
			<g id="XMLID_37_">
				<path id="XMLID_18_" class="st5" d="M249.3,326.1v24.9h-17.4c-5.6,0-10.7-3-13.5-7.8l-12.2-21.5c0,0,5.7,4.5,14.9,4.5
					C229.2,326.1,249.3,326.1,249.3,326.1z"/>
			</g>
		</g>
		<g id="XMLID_4_">
			<g id="XMLID_34_">
				<path id="XMLID_17_" class="st5" d="M221.4,326.1l10.1-17.3l8,4.5l-13-22.1h-27l10.6,5.9l-4.7,7.1c0,0-6.2,8.1,0.6,17.3
					C206.2,321.6,211.7,326.1,221.4,326.1z"/>
			</g>
		</g>
		<g id="XMLID_6_">
			<g id="XMLID_31_">
				<path id="XMLID_16_" class="st5" d="M280.6,302.2l21.5-12.4l8.7,15.1c2.8,4.8,2.8,10.7,0,15.5l-12.5,21.3c0,0,1.1-7.2-3.5-15.1
					C290.6,319.4,280.6,302.2,280.6,302.2z"/>
			</g>
		</g>
		<g id="XMLID_5_">
			<g id="XMLID_28_">
				<path id="XMLID_15_" class="st5" d="M294.5,326.2l-19.9-0.1l-0.1-9.2L261.8,339l13.5,23.4l-0.2-12.2l8.5,0.5
					c0,0,10.2,1.4,14.7-9.2C298.2,341.6,299.3,334.5,294.5,326.2z"/>
			</g>
		</g>
		<g id="XMLID_8_">
			<g id="XMLID_25_">
				<path id="XMLID_14_" class="st5" d="M245.3,287.4l-21.8-12.2l8.6-15.2c2.8-4.8,7.8-7.8,13.4-7.8l24.8-0.1c0,0-6.8,2.8-11.3,10.7
					C255,269.9,245.3,287.4,245.3,287.4z"/>
			</g>
		</g>
		<g id="XMLID_7_">
			<g id="XMLID_22_">
				<path id="XMLID_11_" class="st5" d="M258.9,263.1l10.1,17.3l-7.8,4.8l25.6-0.4l13.3-23.5l-10.4,6.3l-3.9-7.6c0,0-4-9.4-15.3-7.9
					C270.3,252.1,263.6,254.7,258.9,263.1z"/>
			</g>
		</g>
	</g>
	<path id="XMLID_51_" class="st6" d="M256.3,185.4v279.8h56.6c17.1,0,31.4-13.1,33-30.1l18.4-249.6H256.3z"/>
</g>
</svg>