<svg xmlns="http://www.w3.org/2000/svg" width="1440" height="200"><path d="M662,120L611,54L627,155Z" fill="#76c47a" stroke="#76c47a" stroke-width="1.51"/><path d="M611,54L535,132L627,155Z" fill="#78c57c" stroke="#78c57c" stroke-width="1.51"/><path d="M662,120L679,40L611,54Z" fill="#97d492" stroke="#97d492" stroke-width="1.51"/><path d="M611,54L525,63L535,132Z" fill="#98d593" stroke="#98d593" stroke-width="1.51"/><path d="M532,-13L525,63L611,54Z" fill="#bbe4b6" stroke="#bbe4b6" stroke-width="1.51"/><path d="M535,132L611,210L627,155Z" fill="#59a561" stroke="#59a561" stroke-width="1.51"/><path d="M627,155L691,222L662,120Z" fill="#50a15a" stroke="#50a15a" stroke-width="1.51"/><path d="M679,40L670,0L611,54Z" fill="#b2dfae" stroke="#b2dfae" stroke-width="1.51"/><path d="M535,132L528,213L611,210Z" fill="#56985b" stroke="#56985b" stroke-width="1.51"/><path d="M525,63L485,122L535,132Z" fill="#88cd88" stroke="#88cd88" stroke-width="1.51"/><path d="M670,0L614,-28L611,54Z" fill="#bee4ba" stroke="#bee4ba" stroke-width="1.51"/><path d="M485,122L528,213L535,132Z" fill="#67af6e" stroke="#67af6e" stroke-width="1.51"/><path d="M611,210L691,222L627,155Z" fill="#48894f" stroke="#48894f" stroke-width="1.51"/><path d="M662,120L764,59L679,40Z" fill="#8fd08c" stroke="#8fd08c" stroke-width="1.51"/><path d="M622,276L691,222L611,210Z" fill="#46854e" stroke="#46854e" stroke-width="1.51"/><path d="M614,-28L532,-13L611,54Z" fill="#c6e8c1" stroke="#c6e8c1" stroke-width="1.51"/><path d="M525,63L465,47L485,122Z" fill="#a4da9e" stroke="#a4da9e" stroke-width="1.51"/><path d="M691,222L756,141L662,120Z" fill="#4ca159" stroke="#4ca159" stroke-width="1.51"/><path d="M679,40L773,-29L670,0Z" fill="#b7e0b5" stroke="#b7e0b5" stroke-width="1.51"/><path d="M756,141L764,59L662,120Z" fill="#6dc072" stroke="#6dc072" stroke-width="1.51"/><path d="M483,12L465,47L525,63Z" fill="#bfe6b8" stroke="#bfe6b8" stroke-width="1.51"/><path d="M532,-13L483,12L525,63Z" fill="#c8e9c2" stroke="#c8e9c2" stroke-width="1.51"/><path d="M528,213L622,276L611,210Z" fill="#4d8953" stroke="#4d8953" stroke-width="1.51"/><path d="M614,-28L592,-67L532,-13Z" fill="#c8e8c3" stroke="#c8e8c3" stroke-width="1.51"/><path d="M532,-13L519,-71L483,12Z" fill="#cfeccb" stroke="#cfeccb" stroke-width="1.51"/><path d="M689,-96L592,-67L614,-28Z" fill="#c1e5be" stroke="#c1e5be" stroke-width="1.51"/><path d="M689,-96L614,-28L670,0Z" fill="#bfe4bb" stroke="#bfe4bb" stroke-width="1.51"/><path d="M691,222L747,226L756,141Z" fill="#3c8446" stroke="#3c8446" stroke-width="1.51"/><path d="M684,277L747,226L691,222Z" fill="#3e8248" stroke="#3e8248" stroke-width="1.51"/><path d="M622,276L684,277L691,222Z" fill="#43844b" stroke="#43844b" stroke-width="1.51"/><path d="M528,213L516,302L622,276Z" fill="#518a56" stroke="#518a56" stroke-width="1.51"/><path d="M485,122L457,221L528,213Z" fill="#5e9b62" stroke="#5e9b62" stroke-width="1.51"/><path d="M372,123L457,221L485,122Z" fill="#70b276" stroke="#70b276" stroke-width="1.51"/><path d="M592,-67L519,-71L532,-13Z" fill="#cceac6" stroke="#cceac6" stroke-width="1.51"/><path d="M483,12L418,-3L465,47Z" fill="#cfecc8" stroke="#cfecc8" stroke-width="1.51"/><path d="M764,59L773,-29L679,40Z" fill="#acdba9" stroke="#acdba9" stroke-width="1.51"/><path d="M842,46L773,-29L764,59Z" fill="#a5d8a5" stroke="#a5d8a5" stroke-width="1.51"/><path d="M745,-83L689,-96L670,0Z" fill="#bae1b6" stroke="#bae1b6" stroke-width="1.51"/><path d="M592,-67L469,-103L519,-71Z" fill="#ceebc9" stroke="#ceebc9" stroke-width="1.51"/><path d="M457,221L516,302L528,213Z" fill="#578d5b" stroke="#578d5b" stroke-width="1.51"/><path d="M622,276L516,302L684,277Z" fill="#4b8751" stroke="#4b8751" stroke-width="1.51"/><path d="M469,-103L418,-3L483,12Z" fill="#d5eed0" stroke="#d5eed0" stroke-width="1.51"/><path d="M465,47L376,85L485,122Z" fill="#a3da9e" stroke="#a3da9e" stroke-width="1.51"/><path d="M756,141L833,152L764,59Z" fill="#5bb769" stroke="#5bb769" stroke-width="1.51"/><path d="M818,206L833,152L756,141Z" fill="#3b974f" stroke="#3b974f" stroke-width="1.51"/><path d="M808,262L818,206L747,226Z" fill="#327d42" stroke="#327d42" stroke-width="1.51"/><path d="M747,226L818,206L756,141Z" fill="#378646" stroke="#378646" stroke-width="1.51"/><path d="M773,-29L745,-83L670,0Z" fill="#b6e0b4" stroke="#b6e0b4" stroke-width="1.51"/><path d="M833,152L842,46L764,59Z" fill="#75c47a" stroke="#75c47a" stroke-width="1.51"/><path d="M773,-29L816,-82L745,-83Z" fill="#b0ddb0" stroke="#b0ddb0" stroke-width="1.51"/><path d="M418,-3L376,85L465,47Z" fill="#c5e8be" stroke="#c5e8be" stroke-width="1.51"/><path d="M376,85L372,123L485,122Z" fill="#90d090" stroke="#90d090" stroke-width="1.51"/><path d="M457,221L452,286L516,302Z" fill="#5a8e5d" stroke="#5a8e5d" stroke-width="1.51"/><path d="M400,265L452,286L457,221Z" fill="#5e8f61" stroke="#5e8f61" stroke-width="1.51"/><path d="M372,123L394,226L457,221Z" fill="#659a68" stroke="#659a68" stroke-width="1.51"/><path d="M778,300L808,262L747,226Z" fill="#347d42" stroke="#347d42" stroke-width="1.51"/><path d="M818,206L876,149L833,152Z" fill="#33934b" stroke="#33934b" stroke-width="1.51"/><path d="M778,300L747,226L684,277Z" fill="#3a8045" stroke="#3a8045" stroke-width="1.51"/><path d="M842,46L825,-30L773,-29Z" fill="#acdaae" stroke="#acdaae" stroke-width="1.51"/><path d="M689,-96L469,-103L592,-67Z" fill="#c7e8c3" stroke="#c7e8c3" stroke-width="1.51"/><path d="M519,-71L469,-103L483,12Z" fill="#d2edcd" stroke="#d2edcd" stroke-width="1.51"/><path d="M516,302L778,300L684,277Z" fill="#44854c" stroke="#44854c" stroke-width="1.51"/><path d="M394,226L400,265L457,221Z" fill="#609063" stroke="#609063" stroke-width="1.51"/><path d="M324,262L400,265L394,226Z" fill="#649267" stroke="#649267" stroke-width="1.51"/><path d="M833,152L876,149L842,46Z" fill="#53b365" stroke="#53b365" stroke-width="1.51"/><path d="M842,46L885,-9L825,-30Z" fill="#a6d7aa" stroke="#a6d7aa" stroke-width="1.51"/><path d="M923,184L876,149L818,206Z" fill="#2a8944" stroke="#2a8944" stroke-width="1.51"/><path d="M469,-103L407,-72L418,-3Z" fill="#d8f0d3" stroke="#d8f0d3" stroke-width="1.51"/><path d="M418,-3L344,13L376,85Z" fill="#d0edc9" stroke="#d0edc9" stroke-width="1.51"/><path d="M825,-30L816,-82L773,-29Z" fill="#addbae" stroke="#addbae" stroke-width="1.51"/><path d="M745,-83L816,-82L689,-96Z" fill="#b4dfb2" stroke="#b4dfb2" stroke-width="1.51"/><path d="M909,-87L816,-82L825,-30Z" fill="#a7d8ab" stroke="#a7d8ab" stroke-width="1.51"/><path d="M376,85L302,87L372,123Z" fill="#a1d89d" stroke="#a1d89d" stroke-width="1.51"/><path d="M372,123L331,203L394,226Z" fill="#6ba16f" stroke="#6ba16f" stroke-width="1.51"/><path d="M407,-72L344,13L418,-3Z" fill="#dcf1d7" stroke="#dcf1d7" stroke-width="1.51"/><path d="M922,68L885,-9L842,46Z" fill="#94cf98" stroke="#94cf98" stroke-width="1.51"/><path d="M303,152L331,203L372,123Z" fill="#79b57e" stroke="#79b57e" stroke-width="1.51"/><path d="M344,13L302,87L376,85Z" fill="#c0e6b9" stroke="#c0e6b9" stroke-width="1.51"/><path d="M876,149L922,68L842,46Z" fill="#6bbe74" stroke="#6bbe74" stroke-width="1.51"/><path d="M302,87L303,152L372,123Z" fill="#8fcd93" stroke="#8fcd93" stroke-width="1.51"/><path d="M876,149L972,139L922,68Z" fill="#46ac5e" stroke="#46ac5e" stroke-width="1.51"/><path d="M886,275L923,184L818,206Z" fill="#25773c" stroke="#25773c" stroke-width="1.51"/><path d="M886,275L818,206L808,262Z" fill="#2b7a3f" stroke="#2b7a3f" stroke-width="1.51"/><path d="M778,300L886,275L808,262Z" fill="#2d7b3f" stroke="#2d7b3f" stroke-width="1.51"/><path d="M400,265L265,283L452,286Z" fill="#649267" stroke="#649267" stroke-width="1.51"/><path d="M452,286L265,283L516,302Z" fill="#609163" stroke="#609163" stroke-width="1.51"/><path d="M331,203L324,262L394,226Z" fill="#679369" stroke="#679369" stroke-width="1.51"/><path d="M259,199L324,262L331,203Z" fill="#6a956d" stroke="#6a956d" stroke-width="1.51"/><path d="M922,68L953,49L885,-9Z" fill="#90cc95" stroke="#90cc95" stroke-width="1.51"/><path d="M885,-9L909,-87L825,-30Z" fill="#a5d6a9" stroke="#a5d6a9" stroke-width="1.51"/><path d="M972,139L953,49L922,68Z" fill="#67b971" stroke="#67b971" stroke-width="1.51"/><path d="M407,-72L317,-73L344,13Z" fill="#e0f3db" stroke="#e0f3db" stroke-width="1.51"/><path d="M344,13L262,62L302,87Z" fill="#c9eac2" stroke="#c9eac2" stroke-width="1.51"/><path d="M469,-103L317,-73L407,-72Z" fill="#dbf1d6" stroke="#dbf1d6" stroke-width="1.51"/><path d="M302,87L237,159L303,152Z" fill="#8bc891" stroke="#8bc891" stroke-width="1.51"/><path d="M303,152L259,199L331,203Z" fill="#71a374" stroke="#71a374" stroke-width="1.51"/><path d="M237,-6L262,62L344,13Z" fill="#ddf2d8" stroke="#ddf2d8" stroke-width="1.51"/><path d="M816,-82L909,-87L689,-96Z" fill="#addbae" stroke="#addbae" stroke-width="1.51"/><path d="M980,-60L909,-87L885,-9Z" fill="#a0d2a5" stroke="#a0d2a5" stroke-width="1.51"/><path d="M923,184L972,139L876,149Z" fill="#2d944c" stroke="#2d944c" stroke-width="1.51"/><path d="M962,273L956,190L923,184Z" fill="#1d7238" stroke="#1d7238" stroke-width="1.51"/><path d="M956,190L972,139L923,184Z" fill="#248a43" stroke="#248a43" stroke-width="1.51"/><path d="M237,159L259,199L303,152Z" fill="#7ab07e" stroke="#7ab07e" stroke-width="1.51"/><path d="M262,62L237,159L302,87Z" fill="#a4d8a1" stroke="#a4d8a1" stroke-width="1.51"/><path d="M1047,205L1042,130L972,139Z" fill="#248b45" stroke="#248b45" stroke-width="1.51"/><path d="M886,275L962,273L923,184Z" fill="#1f7439" stroke="#1f7439" stroke-width="1.51"/><path d="M1030,298L962,273L886,275Z" fill="#1c7037" stroke="#1c7037" stroke-width="1.51"/><path d="M324,262L265,283L400,265Z" fill="#68946a" stroke="#68946a" stroke-width="1.51"/><path d="M259,199L265,283L324,262Z" fill="#6c956f" stroke="#6c956f" stroke-width="1.51"/><path d="M190,187L265,283L259,199Z" fill="#6f9772" stroke="#6f9772" stroke-width="1.51"/><path d="M161,114L190,187L237,159Z" fill="#87bd8d" stroke="#87bd8d" stroke-width="1.51"/><path d="M317,-73L237,-6L344,13Z" fill="#e4f5e0" stroke="#e4f5e0" stroke-width="1.51"/><path d="M317,-73L257,-81L237,-6Z" fill="#e7f6e2" stroke="#e7f6e2" stroke-width="1.51"/><path d="M469,-103L257,-81L317,-73Z" fill="#e0f3db" stroke="#e0f3db" stroke-width="1.51"/><path d="M953,49L991,-30L885,-9Z" fill="#9dcfa2" stroke="#9dcfa2" stroke-width="1.51"/><path d="M1033,14L991,-30L953,49Z" fill="#96ca9c" stroke="#96ca9c" stroke-width="1.51"/><path d="M1043,44L953,49L972,139Z" fill="#6cb974" stroke="#6cb974" stroke-width="1.51"/><path d="M991,-30L980,-60L885,-9Z" fill="#9ecfa3" stroke="#9ecfa3" stroke-width="1.51"/><path d="M1047,205L972,139L956,190Z" fill="#1d813d" stroke="#1d813d" stroke-width="1.51"/><path d="M237,159L190,187L259,199Z" fill="#78a87b" stroke="#78a87b" stroke-width="1.51"/><path d="M180,71L237,159L262,62Z" fill="#acdca8" stroke="#acdca8" stroke-width="1.51"/><path d="M991,-30L1028,-75L980,-60Z" fill="#9acba0" stroke="#9acba0" stroke-width="1.51"/><path d="M1043,44L1033,14L953,49Z" fill="#89c38e" stroke="#89c38e" stroke-width="1.51"/><path d="M237,-6L180,71L262,62Z" fill="#d7f0d1" stroke="#d7f0d1" stroke-width="1.51"/><path d="M163,-12L180,71L237,-6Z" fill="#e7f6e2" stroke="#e7f6e2" stroke-width="1.51"/><path d="M1042,130L1043,44L972,139Z" fill="#4fab5f" stroke="#4fab5f" stroke-width="1.51"/><path d="M1042,130L1118,43L1043,44Z" fill="#6ab472" stroke="#6ab472" stroke-width="1.51"/><path d="M962,273L1047,205L956,190Z" fill="#196e35" stroke="#196e35" stroke-width="1.51"/><path d="M180,71L161,114L237,159Z" fill="#a0d5a1" stroke="#a0d5a1" stroke-width="1.51"/><path d="M1099,-75L1028,-75L1033,14Z" fill="#96c69b" stroke="#96c69b" stroke-width="1.51"/><path d="M1033,14L1028,-75L991,-30Z" fill="#98c99e" stroke="#98c99e" stroke-width="1.51"/><path d="M980,-60L1028,-75L909,-87Z" fill="#9ccda2" stroke="#9ccda2" stroke-width="1.51"/><path d="M962,273L1030,298L1047,205Z" fill="#176c34" stroke="#176c34" stroke-width="1.51"/><path d="M778,300L1030,298L886,275Z" fill="#21753b" stroke="#21753b" stroke-width="1.51"/><path d="M180,71L127,73L161,114Z" fill="#bbe3b6" stroke="#bbe3b6" stroke-width="1.51"/><path d="M186,-102L163,-12L237,-6Z" fill="#edf8e9" stroke="#edf8e9" stroke-width="1.51"/><path d="M469,-103L186,-102L257,-81Z" fill="#e4f5df" stroke="#e4f5df" stroke-width="1.51"/><path d="M257,-81L186,-102L237,-6Z" fill="#eaf7e6" stroke="#eaf7e6" stroke-width="1.51"/><path d="M114,-25L127,73L163,-12Z" fill="#ecf8e8" stroke="#ecf8e8" stroke-width="1.51"/><path d="M163,-12L127,73L180,71Z" fill="#dbf1d5" stroke="#dbf1d5" stroke-width="1.51"/><path d="M161,114L123,147L190,187Z" fill="#8cc192" stroke="#8cc192" stroke-width="1.51"/><path d="M127,73L123,147L161,114Z" fill="#a6d8a7" stroke="#a6d8a7" stroke-width="1.51"/><path d="M190,187L161,303L265,283Z" fill="#729874" stroke="#729874" stroke-width="1.51"/><path d="M118,268L161,303L190,187Z" fill="#759978" stroke="#759978" stroke-width="1.51"/><path d="M265,283L161,303L516,302Z" fill="#6a946c" stroke="#6a946c" stroke-width="1.51"/><path d="M1043,44L1118,43L1033,14Z" fill="#87bf8c" stroke="#87bf8c" stroke-width="1.51"/><path d="M1133,145L1118,43L1042,130Z" fill="#47a359" stroke="#47a359" stroke-width="1.51"/><path d="M1133,145L1042,130L1047,205Z" fill="#1e8540" stroke="#1e8540" stroke-width="1.51"/><path d="M1120,274L1113,219L1047,205Z" fill="#0f652e" stroke="#0f652e" stroke-width="1.51"/><path d="M44,157L94,203L123,147Z" fill="#86b68a" stroke="#86b68a" stroke-width="1.51"/><path d="M186,-102L114,-25L163,-12Z" fill="#f0f9ec" stroke="#f0f9ec" stroke-width="1.51"/><path d="M1125,-14L1099,-75L1033,14Z" fill="#93c399" stroke="#93c399" stroke-width="1.51"/><path d="M1028,-75L1099,-75L909,-87Z" fill="#99ca9f" stroke="#99ca9f" stroke-width="1.51"/><path d="M94,203L118,268L190,187Z" fill="#779a79" stroke="#779a79" stroke-width="1.51"/><path d="M94,203L190,187L123,147Z" fill="#7fad82" stroke="#7fad82" stroke-width="1.51"/><path d="M1113,219L1133,145L1047,205Z" fill="#106e32" stroke="#106e32" stroke-width="1.51"/><path d="M1118,43L1125,-14L1033,14Z" fill="#8ec093" stroke="#8ec093" stroke-width="1.51"/><path d="M1167,-28L1125,-14L1118,43Z" fill="#90be95" stroke="#90be95" stroke-width="1.51"/><path d="M44,157L123,147L127,73Z" fill="#9cd1a1" stroke="#9cd1a1" stroke-width="1.51"/><path d="M1030,298L1120,274L1047,205Z" fill="#126830" stroke="#126830" stroke-width="1.51"/><path d="M1113,219L1178,222L1133,145Z" fill="#0b652d" stroke="#0b652d" stroke-width="1.51"/><path d="M114,-25L55,49L127,73Z" fill="#e5f5e0" stroke="#e5f5e0" stroke-width="1.51"/><path d="M186,-102L89,-63L114,-25Z" fill="#f1faed" stroke="#f1faed" stroke-width="1.51"/><path d="M58,-14L55,49L114,-25Z" fill="#f2faef" stroke="#f2faef" stroke-width="1.51"/><path d="M1125,-14L1168,-70L1099,-75Z" fill="#90bf96" stroke="#90bf96" stroke-width="1.51"/><path d="M1133,145L1173,84L1118,43Z" fill="#54a65f" stroke="#54a65f" stroke-width="1.51"/><path d="M1196,145L1173,84L1133,145Z" fill="#2d934b" stroke="#2d934b" stroke-width="1.51"/><path d="M89,-63L58,-14L114,-25Z" fill="#f3fbf0" stroke="#f3fbf0" stroke-width="1.51"/><path d="M1173,84L1167,-28L1118,43Z" fill="#81b786" stroke="#81b786" stroke-width="1.51"/><path d="M94,203L45,295L118,268Z" fill="#799b7c" stroke="#799b7c" stroke-width="1.51"/><path d="M55,49L44,157L127,73Z" fill="#b9e2b5" stroke="#b9e2b5" stroke-width="1.51"/><path d="M26,207L44,157L-26,149Z" fill="#89b68d" stroke="#89b68d" stroke-width="1.51"/><path d="M1168,266L1178,222L1113,219Z" fill="#0a612b" stroke="#0a612b" stroke-width="1.51"/><path d="M1120,274L1168,266L1113,219Z" fill="#0b622b" stroke="#0b622b" stroke-width="1.51"/><path d="M1248,284L1168,266L1120,274Z" fill="#075e29" stroke="#075e29" stroke-width="1.51"/><path d="M1264,-78L1168,-70L1167,-28Z" fill="#8cb990" stroke="#8cb990" stroke-width="1.51"/><path d="M1167,-28L1168,-70L1125,-14Z" fill="#8fbd94" stroke="#8fbd94" stroke-width="1.51"/><path d="M1255,5L1167,-28L1173,84Z" fill="#84b688" stroke="#84b688" stroke-width="1.51"/><path d="M1178,222L1196,145L1133,145Z" fill="#0e7734" stroke="#0e7734" stroke-width="1.51"/><path d="M1248,215L1196,145L1178,222Z" fill="#056229" stroke="#056229" stroke-width="1.51"/><path d="M44,157L26,207L94,203Z" fill="#7fa582" stroke="#7fa582" stroke-width="1.51"/><path d="M118,268L45,295L161,303Z" fill="#789a7a" stroke="#789a7a" stroke-width="1.51"/><path d="M-26,149L44,157L-42,70Z" fill="#a1d4a7" stroke="#a1d4a7" stroke-width="1.51"/><path d="M26,207L45,295L94,203Z" fill="#7b9b7e" stroke="#7b9b7e" stroke-width="1.51"/><path d="M-42,70L44,157L55,49Z" fill="#bde3ba" stroke="#bde3ba" stroke-width="1.51"/><path d="M89,-63L19,-97L58,-14Z" fill="#f4fbf2" stroke="#f4fbf2" stroke-width="1.51"/><path d="M186,-102L19,-97L89,-63Z" fill="#f2faef" stroke="#f2faef" stroke-width="1.51"/><path d="M26,207L-46,289L45,295Z" fill="#7c9c80" stroke="#7c9c80" stroke-width="1.51"/><path d="M-42,70L55,49L-42,-20Z" fill="#e9f7e5" stroke="#e9f7e5" stroke-width="1.51"/><path d="M1248,284L1248,215L1178,222Z" fill="#035b26" stroke="#035b26" stroke-width="1.51"/><path d="M1196,145L1258,129L1173,84Z" fill="#31924a" stroke="#31924a" stroke-width="1.51"/><path d="M1248,215L1258,129L1196,145Z" fill="#0d7634" stroke="#0d7634" stroke-width="1.51"/><path d="M1264,60L1255,5L1173,84Z" fill="#71ac75" stroke="#71ac75" stroke-width="1.51"/><path d="M1258,129L1264,60L1173,84Z" fill="#4e9e58" stroke="#4e9e58" stroke-width="1.51"/><path d="M-42,-20L55,49L58,-14Z" fill="#f4fbf1" stroke="#f4fbf1" stroke-width="1.51"/><path d="M1258,129L1311,125L1264,60Z" fill="#3e934c" stroke="#3e934c" stroke-width="1.51"/><path d="M1309,203L1311,125L1258,129Z" fill="#127636" stroke="#127636" stroke-width="1.51"/><path d="M1168,266L1248,284L1178,222Z" fill="#055d27" stroke="#055d27" stroke-width="1.51"/><path d="M1030,298L1248,284L1120,274Z" fill="#0c622c" stroke="#0c622c" stroke-width="1.51"/><path d="M19,-97L-42,-20L58,-14Z" fill="#f7fcf4" stroke="#f7fcf4" stroke-width="1.51"/><path d="M-26,149L-48,228L26,207Z" fill="#7fa183" stroke="#7fa183" stroke-width="1.51"/><path d="M-115,228L-48,228L-126,139Z" fill="#7e9e81" stroke="#7e9e81" stroke-width="1.51"/><path d="M-126,139L-26,149L-42,70Z" fill="#a6d7aa" stroke="#a6d7aa" stroke-width="1.51"/><path d="M1322,11L1264,-78L1255,5Z" fill="#87b18a" stroke="#87b18a" stroke-width="1.51"/><path d="M1255,5L1264,-78L1167,-28Z" fill="#8ab68e" stroke="#8ab68e" stroke-width="1.51"/><path d="M1168,-70L1340,-104L1099,-75Z" fill="#8cb890" stroke="#8cb890" stroke-width="1.51"/><path d="M1099,-75L1340,-104L909,-87Z" fill="#91c097" stroke="#91c097" stroke-width="1.51"/><path d="M909,-87L1340,-104L689,-96Z" fill="#9bcda1" stroke="#9bcda1" stroke-width="1.51"/><path d="M689,-96L1340,-104L469,-103Z" fill="#aad9ac" stroke="#aad9ac" stroke-width="1.51"/><path d="M-48,228L-46,289L26,207Z" fill="#7d9c80" stroke="#7d9c80" stroke-width="1.51"/><path d="M45,295L-46,289L161,303Z" fill="#7b9b7e" stroke="#7b9b7e" stroke-width="1.51"/><path d="M-42,-20L-113,-9L-42,70Z" fill="#f2faef" stroke="#f2faef" stroke-width="1.51"/><path d="M19,-97L-57,-94L-42,-20Z" fill="#f7fcf5" stroke="#f7fcf5" stroke-width="1.51"/><path d="M1309,203L1258,129L1248,215Z" fill="#006529" stroke="#006529" stroke-width="1.51"/><path d="M1264,60L1322,11L1255,5Z" fill="#7ead81" stroke="#7ead81" stroke-width="1.51"/><path d="M1248,284L1309,203L1248,215Z" fill="#005723" stroke="#005723" stroke-width="1.51"/><path d="M1348,76L1264,60L1311,125Z" fill="#4e9756" stroke="#4e9756" stroke-width="1.51"/><path d="M1348,76L1322,11L1264,60Z" fill="#6da370" stroke="#6da370" stroke-width="1.51"/><path d="M-117,-63L-113,-9L-42,-20Z" fill="#f7fcf5" stroke="#f7fcf5" stroke-width="1.51"/><path d="M-48,228L-115,228L-46,289Z" fill="#7d9c80" stroke="#7d9c80" stroke-width="1.51"/><path d="M1386,135L1348,76L1311,125Z" fill="#338746" stroke="#338746" stroke-width="1.51"/><path d="M-113,-9L-124,63L-42,70Z" fill="#e4f5e0" stroke="#e4f5e0" stroke-width="1.51"/><path d="M-126,139L-48,228L-26,149Z" fill="#89b68d" stroke="#89b68d" stroke-width="1.51"/><path d="M-124,63L-126,139L-42,70Z" fill="#bfe4bc" stroke="#bfe4bc" stroke-width="1.51"/><path d="M-57,-94L-117,-63L-42,-20Z" fill="#f7fcf5" stroke="#f7fcf5" stroke-width="1.51"/><path d="M-113,-9L-117,-63L-124,63Z" fill="#f7fcf5" stroke="#f7fcf5" stroke-width="1.51"/><path d="M1309,203L1386,135L1311,125Z" fill="#0f7033" stroke="#0f7033" stroke-width="1.51"/><path d="M1248,284L1343,281L1309,203Z" fill="#005421" stroke="#005421" stroke-width="1.51"/><path d="M1470,280L1343,281L1548,299Z" fill="#00441b" stroke="#00441b" stroke-width="1.51"/><path d="M1386,-63L1340,-104L1322,11Z" fill="#82a886" stroke="#82a886" stroke-width="1.51"/><path d="M1322,11L1340,-104L1264,-78Z" fill="#85ad88" stroke="#85ad88" stroke-width="1.51"/><path d="M1264,-78L1340,-104L1168,-70Z" fill="#88b38c" stroke="#88b38c" stroke-width="1.51"/><path d="M-126,139L-132,271L-115,228Z" fill="#7d9c80" stroke="#7d9c80" stroke-width="1.51"/><path d="M-115,228L-132,271L-46,289Z" fill="#7d9c80" stroke="#7d9c80" stroke-width="1.51"/><path d="M-124,63L-132,271L-126,139Z" fill="#90bf95" stroke="#90bf95" stroke-width="1.51"/><path d="M1385,229L1386,135L1309,203Z" fill="#005622" stroke="#005622" stroke-width="1.51"/><path d="M1348,76L1400,59L1322,11Z" fill="#6b9e6e" stroke="#6b9e6e" stroke-width="1.51"/><path d="M1343,281L1385,229L1309,203Z" fill="#004e1f" stroke="#004e1f" stroke-width="1.51"/><path d="M1457,113L1400,59L1386,135Z" fill="#3b8446" stroke="#3b8446" stroke-width="1.51"/><path d="M1386,135L1400,59L1348,76Z" fill="#488d51" stroke="#488d51" stroke-width="1.51"/><path d="M1497,206L1457,113L1386,135Z" fill="#10652f" stroke="#10652f" stroke-width="1.51"/><path d="M1343,281L1387,256L1385,229Z" fill="#004b1e" stroke="#004b1e" stroke-width="1.51"/><path d="M1406,-18L1386,-63L1322,11Z" fill="#81a584" stroke="#81a584" stroke-width="1.51"/><path d="M1400,59L1406,-18L1322,11Z" fill="#7ba27d" stroke="#7ba27d" stroke-width="1.51"/><path d="M1452,1L1406,-18L1400,59Z" fill="#799d7c" stroke="#799d7c" stroke-width="1.51"/><path d="M1497,206L1386,135L1385,229Z" fill="#004e1f" stroke="#004e1f" stroke-width="1.51"/><path d="M1406,-18L1452,-84L1386,-63Z" fill="#7fa082" stroke="#7fa082" stroke-width="1.51"/><path d="M1483,46L1452,1L1400,59Z" fill="#6e9671" stroke="#6e9671" stroke-width="1.51"/><path d="M1452,1L1452,-84L1406,-18Z" fill="#7d9d80" stroke="#7d9d80" stroke-width="1.51"/><path d="M1386,-63L1452,-84L1340,-104Z" fill="#80a283" stroke="#80a283" stroke-width="1.51"/><path d="M1525,-31L1452,-84L1452,1Z" fill="#7d9c80" stroke="#7d9c80" stroke-width="1.51"/><path d="M1457,113L1483,46L1400,59Z" fill="#558c59" stroke="#558c59" stroke-width="1.51"/><path d="M1457,113L1548,50L1483,46Z" fill="#578d5b" stroke="#578d5b" stroke-width="1.51"/><path d="M1387,256L1470,280L1385,229Z" fill="#00471c" stroke="#00471c" stroke-width="1.51"/><path d="M1343,281L1470,280L1387,256Z" fill="#00481d" stroke="#00481d" stroke-width="1.51"/><path d="M1548,299L1343,281L1248,284Z" fill="#004a1e" stroke="#004a1e" stroke-width="1.51"/><path d="M1470,280L1497,206L1385,229Z" fill="#00441b" stroke="#00441b" stroke-width="1.51"/><path d="M1483,46L1525,-31L1452,1Z" fill="#7b9c7e" stroke="#7b9c7e" stroke-width="1.51"/><path d="M1548,50L1525,-31L1483,46Z" fill="#759978" stroke="#759978" stroke-width="1.51"/><path d="M1557,134L1548,50L1457,113Z" fill="#3d8247" stroke="#3d8247" stroke-width="1.51"/><path d="M1497,206L1557,134L1457,113Z" fill="#10662f" stroke="#10662f" stroke-width="1.51"/><path d="M1562,219L1557,134L1497,206Z" fill="#004f1f" stroke="#004f1f" stroke-width="1.51"/><path d="M1470,280L1548,299L1497,206Z" fill="#00441b" stroke="#00441b" stroke-width="1.51"/><path d="M1030,298L1548,299L1248,284Z" fill="#005623" stroke="#005623" stroke-width="1.51"/><path d="M778,300L1548,299L1030,298Z" fill="#0d632d" stroke="#0d632d" stroke-width="1.51"/><path d="M516,302L1548,299L778,300Z" fill="#1c7138" stroke="#1c7138" stroke-width="1.51"/><path d="M1548,299L1562,219L1497,206Z" fill="#00441b" stroke="#00441b" stroke-width="1.51"/><path d="M1548,50L1558,-57L1525,-31Z" fill="#7d9c80" stroke="#7d9c80" stroke-width="1.51"/><path d="M1525,-31L1558,-57L1452,-84Z" fill="#7d9c80" stroke="#7d9c80" stroke-width="1.51"/><path d="M1557,134L1558,-57L1548,50Z" fill="#6a956d" stroke="#6a956d" stroke-width="1.51"/><path d="M1562,219L1558,-57L1557,134Z" fill="#3d8247" stroke="#3d8247" stroke-width="1.51"/></svg>