<?xml version="1.0" encoding="utf-8"?>
<!-- Generator: Adobe Illustrator 19.0.0, SVG Export Plug-In . SVG Version: 6.00 Build 0)  -->
<svg version="1.1" id="Layer_1" xmlns="http://www.w3.org/2000/svg" xmlns:xlink="http://www.w3.org/1999/xlink" x="0px" y="0px"
	 viewBox="0 0 500 550" style="enable-background:new 0 0 500 550;" xml:space="preserve">
<style type="text/css">
	.st0{fill:#FFFBF7;}
	.st1{fill:#40C4DC;}
	.st2{fill:#0399B5;}
	.st3{fill:#1E2150;}
	.st4{fill:#028EC2;}
	.st5{fill:#FCFDFC;stroke:#43C4DC;stroke-width:4;stroke-miterlimit:10;}
	.st6{opacity:0.35;fill:#1899AA;}
	.st7{fill:#FCFDFC;stroke:#1E214F;stroke-width:4;stroke-miterlimit:10;}
	.st8{opacity:0.35;fill:#12173C;}
	.st9{fill:#FCFDFC;stroke:#008EC2;stroke-width:4;stroke-miterlimit:10;}
	.st10{opacity:0.35;fill:#077799;}
	.st11{fill:#FFFFFF;}
	.st12{fill:#077FA5;}
	.st13{fill:#19B4C8;}
	.st14{fill:#1BADDA;}
	g#XMLID_54_{transform: translate(-53rem, -27.5rem);}
</style>
<rect id="XMLID_137_" class="st0" width="500" height="550"/>
<g id="XMLID_54_">
	<path id="XMLID_68_" class="st3" d="M1106.7,575.2c-110.3-0.5-128.9-6.1-128.9-6.1l7.4,330.9c0.8,4.6,9.3,5.2,9.3,5.2
		c19.6,3.9,112.2,8.2,112.2,8.2s92.6-4.3,112.2-8.2c0,0,8.5-0.7,9.3-5.2l7.4-330.9C1235.5,569.1,1217,574.6,1106.7,575.2z"/>
	<path id="XMLID_61_" class="st1" d="M1228.2,529.8c-5.9-2.7-121.6-2.1-121.6-2.1s-115.6-0.7-121.6,2.1c-5.9,2.7-8.4,22.6-7.3,27.8
		c0,0-4.1,9.3,42.7,8.8s86.2-9.4,86.2-9.4s39.4,8.8,86.2,9.4s42.7-8.8,42.7-8.8C1236.7,552.4,1234.2,532.5,1228.2,529.8z"/>
	<path id="XMLID_65_" class="st1" d="M1106.7,575.2c-93,1.3-128.9-6.1-128.9-6.1l0.3,15.1c1.9,3.5,44.6,3.7,52.1,4.1
		c7.5,0.5,23.6,1.8,37.3,5c13.7,3.2,39.2,2.7,39.2,2.7s25.5,0.5,39.2-2.7s29.8-4.6,37.3-5c7.5-0.5,50.1-0.6,52.1-4.1l0.3-15.1
		C1235.5,569.1,1199.6,576.5,1106.7,575.2z"/>
	<path id="XMLID_69_" class="st4" d="M1183.4,558.6c-35.1-1.7-76.8-1.5-76.8-1.5s-41.6-0.2-76.8,1.5c-35.1,1.7-50.4,4-52.1-0.9v11.4
		c0,0,32,9.1,128.9,6.1c96.8,2.9,128.9-6.1,128.9-6.1v-11.4C1233.8,562.5,1218.6,560.2,1183.4,558.6z"/>
	<g id="XMLID_99_">
		<g id="XMLID_115_">
			<g id="XMLID_116_">
				<path id="XMLID_117_" class="st7" d="M1098.9,742.7v22.5h-15.7c-5.1,0-9.7-2.7-12.2-7.1l-11.1-19.5c0,0,5.2,4.1,13.5,4.1
					C1080.7,742.7,1098.9,742.7,1098.9,742.7z"/>
			</g>
		</g>
		<g id="XMLID_112_">
			<g id="XMLID_113_">
				<path id="XMLID_114_" class="st7" d="M1073.6,742.7l9.1-15.6l7.3,4.1l-11.8-20h-24.5l9.6,5.3l-4.3,6.4c0,0-5.6,7.4,0.6,15.6
					C1059.8,738.7,1064.9,742.7,1073.6,742.7z"/>
			</g>
		</g>
		<g id="XMLID_109_">
			<g id="XMLID_110_">
				<path id="XMLID_111_" class="st7" d="M1127.3,721.1l19.5-11.3l7.9,13.7c2.5,4.4,2.5,9.7,0,14.1l-11.4,19.3c0,0,1-6.5-3.2-13.7
					C1136.4,736.7,1127.3,721.1,1127.3,721.1z"/>
			</g>
		</g>
		<g id="XMLID_106_">
			<g id="XMLID_107_">
				<path id="XMLID_108_" class="st7" d="M1139.9,742.8l-18.1-0.1l-0.1-8.4l-11.5,20.1l12.2,21.2l-0.2-11.1l7.7,0.5
					c0,0,9.2,1.3,13.3-8.4C1143.3,756.8,1144.3,750.4,1139.9,742.8z"/>
			</g>
		</g>
		<g id="XMLID_103_">
			<g id="XMLID_104_">
				<path id="XMLID_105_" class="st7" d="M1095.3,707.7l-19.7-11.1l7.8-13.8c2.5-4.4,7.1-7.1,12.1-7.1l22.4-0.1
					c0,0-6.1,2.5-10.2,9.7C1104.1,691.8,1095.3,707.7,1095.3,707.7z"/>
			</g>
		</g>
		<g id="XMLID_100_">
			<g id="XMLID_101_">
				<path id="XMLID_102_" class="st7" d="M1107.6,685.7l9.1,15.6l-7.1,4.4l23.2-0.4L1145,684l-9.4,5.7l-3.5-6.9
					c0,0-3.6-8.6-13.9-7.2C1117.9,675.7,1111.9,678,1107.6,685.7z"/>
			</g>
		</g>
	</g>
	<path id="XMLID_143_" class="st8" d="M1106.7,575.2L1106.7,575.2v338.2l0,0c0,0,92.6-4.3,112.2-8.2c0,0,8.5-0.7,9.3-5.2l7.4-330.9
		C1235.5,569.1,1217,574.6,1106.7,575.2z"/>
	<path id="XMLID_84_" class="st4" d="M1219.4,889.2c-3,0.6-50.3,4.6-54.1,4.7c-3.9,0.2-3.7-5.3-3.7-5.3l-0.8-31.4
		c-0.8-6.2-6.4-7.3-6.4-7.3c-13.7-3.1-47.7-3.2-47.7-3.2s-34,0.1-47.7,3.2c0,0-5.6,1.1-6.4,7.3l-0.8,31.4c0,0,0.2,5.5-3.7,5.3
		c-3.9-0.2-51.1-4.1-54.1-4.7c-3-0.6-8.2-1.4-9.1-5.7l0.4,16.4c0,0,0.4,4.5,9.3,5.2c0,0,31.1,4.3,112.2,8.2
		c81.1-3.9,112.2-8.2,112.2-8.2c8.9-0.8,9.3-5.2,9.3-5.2l0.4-16.4C1227.6,887.9,1222.4,888.6,1219.4,889.2z"/>
	<path id="XMLID_67_" class="st1" d="M1154.8,901c-2.6,4.6-48.2,4.8-48.2,4.8s-45.6-0.2-48.2-4.8c0,0-2.4,11.3,0,14.1
		c2.4,2.8,32.9,5.4,48.2,5.3c15.3,0.1,45.7-2.5,48.2-5.3C1157.2,912.3,1154.8,901,1154.8,901z"/>
	<path id="XMLID_47_" class="st12" d="M1061.4,893.4l2.4-29.9c0.3-3.2,2.7-5.8,5.9-6.2c12-1.6,42.2-4.7,74.9,0.5
		c3.2,0.5,5.6,3.2,5.7,6.4l1.7,29.3c0,0-6,8.7-44.1,7.6C1069.8,900,1063.9,901,1061.4,893.4z"/>
	<path id="XMLID_63_" class="st13" d="M1151.9,893.4c-0.6,4.5-45.3,5.1-45.3,5.1s-44.7-0.7-45.3-5.1c0,0-1.3,6.6,0,9.2
		c0,0,13.8,3.3,45.3,3.2c31.5,0,45.3-3.2,45.3-3.2C1153.2,900,1151.9,893.4,1151.9,893.4z"/>
</g>

</svg>